<svg width="97" height="29" viewBox="0 0 97 29" fill="none" xmlns="http://www.w3.org/2000/svg">
<path d="M-18.9706 57.5621C-16.9482 51.0967 -15.0675 44.5798 -12.8647 38.166C-1.27109 4.43531 36.9363 -7.11738 63.8978 16.4773C74.3964 25.6731 80.8116 39.544 88.9528 51.3929C90.4729 53.5952 91.3102 56.2741 92.4696 58.7212C93.7191 58.0257 94.9686 57.3302 96.2182 56.6218C89.5583 45.2752 83.9805 33.0915 76.0067 22.7495C59.9689 1.9367 36.7044 -4.67037 13.5816 3.23747C-5.65089 9.81875 -19.7307 32.2158 -18.9706 57.5621Z" fill="white"/>
<path d="M-9.37372 56.5059C-1.2582 35.9893 8.11973 15.6015 34.4887 18.5379C58.0881 21.1653 69.9265 40.2137 80.979 58.9658C76.8698 35.0491 50.9774 12.7681 29.555 13.7469C8.81535 14.7 -6.97771 31.4559 -9.37372 56.5059Z" fill="white"/>
<path d="M71.4594 61.2198C63.3439 38.913 43.1581 24.1276 27.2234 27.1671C13.9551 29.6914 2.00086 43.176 1.96222 55.643C24.6084 21.8995 35.0555 22.492 71.4594 61.2198Z" fill="white"/>
</svg>
