<svg width="223" height="229" viewBox="0 0 223 229" fill="none" xmlns="http://www.w3.org/2000/svg">
<path d="M39.525 255.354C38.3399 250.318 39.9243 249.056 44.7679 248.695C53.0122 248.09 61.205 246.699 69.3849 245.643C68.2256 234.76 67.1822 224.882 66.0743 214.424C73.7776 213.831 80.5663 213.071 87.355 212.891C91.7219 212.762 93.023 211.036 92.3016 206.941C91.2582 201.068 90.4209 195.169 89.4161 188.704C99.6056 187.133 109.628 185.587 119.804 184.016C118.542 173.403 117.357 163.512 116.107 153.003C125.137 152.153 133.369 151.393 142.798 150.504C141.652 142.467 140.557 134.817 139.436 126.922C149.793 125.209 159.802 123.548 169.579 121.938C168.137 111.171 166.848 101.486 165.457 91.0407C174.706 89.9975 183.079 89.0573 192.419 88.0141C191.156 81.3556 190.371 75.4569 188.851 69.7385C187.627 65.1149 189.005 63.7883 193.578 63.2474C201.99 62.2557 210.312 60.5299 218.504 59.1389C216.817 48.4234 215.297 38.764 213.661 28.2803C217.281 27.9197 220.14 27.6363 223 27.353V65.9906C215.361 66.9051 207.709 67.8839 200.058 68.6953C196.502 69.0817 195.948 70.9234 196.67 74.0273C197.507 77.569 198.19 81.1623 198.615 84.7685C199.607 93.1143 199.182 93.6552 190.809 95.3037C185.244 96.3985 179.627 97.3129 173.689 98.369C174.333 102.104 174.835 104.821 175.286 107.552C175.737 110.295 176.304 113.038 176.561 115.795C177.63 127.605 177.193 128.081 165.586 129.343C163.242 129.588 160.91 129.962 158.565 130.245C146.792 131.726 146.792 131.713 148.93 143.627C149.188 145.095 149.291 146.602 149.574 148.07C150.669 153.801 148.621 156.841 142.528 157.485C136.486 158.116 130.522 159.468 124.519 160.498C125.498 168.548 126.49 175.528 127.16 182.535C127.675 187.905 125.537 190.816 119.572 191.138C112.217 191.537 104.913 192.864 97.158 193.83C98.034 199.883 98.6652 204.957 99.5283 209.98C100.52 215.802 98.3818 218.712 92.3274 219.266C86.4275 219.794 80.5921 220.992 74.396 221.958C75.1817 229.26 76.0706 235.79 76.5601 242.359C77.1784 250.82 75.8645 252.095 67.6073 252.739C62.2613 253.151 56.954 253.937 51.6081 254.285C47.7307 254.529 46.391 255.959 47.151 260.003C48.1429 265.245 48.4778 270.616 49.0962 275.922H16.8917C24.9171 275.059 32.9424 274.183 42.1271 273.191C41.264 267.009 40.8776 261.072 39.525 255.354Z" fill="white"/>
<path d="M166.191 138.333V138.32H166.179V138.333H166.191Z" fill="white"/>
<path d="M0.145386 275.922C25.5482 245.746 223 0.306641 223 0.306641V8.03417C215.284 17.1398 8.67312 273.269 6.58627 275.922H0.145386Z" fill="white"/>
<path d="M59.4016 275.922C66.6411 266.662 218.968 79.385 223 75.0061V82.7336C221.403 83.9958 77.0496 261.819 65.8424 275.922H59.4016Z" fill="white"/>
<path d="M41.6505 243.621C48.6581 234.734 54.558 227.277 60.4578 219.82C61.0246 220 61.6043 220.181 62.1711 220.348C62.9955 226.775 63.8071 233.189 64.7732 240.749C57.0828 241.702 50.3843 242.526 41.6505 243.621Z" fill="white"/>
<path d="M191.736 56.7176C197.301 49.0673 202.853 41.4042 208.418 33.7411C208.985 33.8827 209.564 34.0115 210.131 34.1532C211.187 40.5027 212.244 46.8521 213.493 54.3607C206.292 55.6229 199.542 56.8078 192.779 57.9927C192.432 57.5676 192.084 57.1426 191.736 56.7176Z" fill="white"/>
<path d="M91.9924 182.445C98.9228 173.455 104.655 166.036 110.388 158.618C111.032 158.734 111.689 158.85 112.346 158.953C113.209 165.354 114.085 171.742 115.089 179.122C107.747 180.178 100.932 181.169 91.9924 182.445Z" fill="white"/>
<path d="M141.819 120.573C148.569 111.596 154.211 104.126 159.841 96.6432L161.812 97.1455C162.688 102.967 163.718 108.762 164.259 114.61C164.349 115.55 162.404 117.366 161.18 117.611C155.409 118.731 149.561 119.439 141.819 120.573Z" fill="white"/>
<path d="M117.975 149.603C124.287 141.36 129.362 134.753 134.425 128.133C135.185 128.3 135.932 128.455 136.692 128.622C137.504 134.199 138.405 139.75 139.011 145.34C139.101 146.228 137.916 148.031 137.182 148.108C131.424 148.74 125.627 149.049 117.975 149.603Z" fill="white"/>
<path d="M68.071 210.92C74.3186 202.948 79.4713 196.393 84.6112 189.837C85.3583 189.979 86.1183 190.121 86.8655 190.262C87.5997 195.659 88.4499 201.055 88.9395 206.477C89.0425 207.572 87.8445 209.736 87.0845 209.813C81.3006 210.38 75.4651 210.547 68.071 210.92Z" fill="white"/>
<path d="M167.454 87.3959C173.315 79.4365 178.068 72.9583 182.822 66.4929C186.326 68.7339 189.817 81.6131 187.923 84.7428C187.614 85.2451 187.034 85.889 186.545 85.9277C180.735 86.4428 174.925 86.8421 167.454 87.3959Z" fill="white"/>
<path d="M102.942 199.02C107.979 198.621 112.423 198.26 116.867 197.912C117.138 198.453 117.408 198.981 117.679 199.522C114.149 203.824 110.632 208.139 105.943 213.87C104.745 207.945 103.934 203.914 102.942 199.02Z" fill="white"/>
<path d="M130.367 164.465H145.323C141.6 169.153 138.47 173.081 134 178.684C132.518 172.914 131.552 169.14 130.367 164.465Z" fill="white"/>
<path d="M80.2056 226.092H95.2772C91.2324 231.025 88.0119 234.94 83.5935 240.324C82.2538 234.708 81.3134 230.78 80.2056 226.092Z" fill="white"/>
<path d="M179.769 102.065H194.016C190.306 106.779 187.33 110.566 183.505 115.421C182.255 110.939 181.173 107.062 179.769 102.065Z" fill="white"/>
<path d="M153.091 137.303C157.445 136.762 161.18 136.221 164.942 135.925C164.942 135.925 164.942 135.925 164.955 135.925C165.006 135.938 165.045 135.963 165.097 136.002C165.135 136.041 165.187 136.105 165.238 136.182V136.195C165.315 136.311 165.38 136.453 165.457 136.607C165.573 136.852 165.689 137.123 165.792 137.406C165.844 137.548 165.908 137.676 165.96 137.805C166.011 137.934 166.063 138.05 166.114 138.166C166.14 138.217 166.166 138.269 166.179 138.32V138.333H166.166C163.203 142.442 160.214 146.537 157.239 150.633C156.633 150.375 156.041 150.131 155.435 149.873C154.688 145.842 153.928 141.811 153.091 137.303Z" fill="white"/>
<path d="M166.191 138.32H166.179V138.333H166.191V138.32Z" fill="white"/>
<path d="M201.9 74.3492C206.885 73.9371 211.162 73.5765 217.255 73.0742C215.116 76.1137 213.893 77.8653 212.656 79.6168C210.981 81.2783 209.294 82.9397 207.619 84.6011C207.065 85.6057 206.524 86.6231 205.223 88.9929C203.987 83.5064 203.072 79.4752 201.9 74.3492Z" fill="white"/>
<path d="M166.191 138.32H166.179V138.333H166.191V138.32Z" fill="white"/>
</svg>
