<svg width="258" height="192" viewBox="0 0 258 192" fill="none" xmlns="http://www.w3.org/2000/svg">
<path d="M257.518 168.623H0V168.752H257.518V168.623Z" fill="#EBEBEB"/>
<path d="M44.0771 173.526H27.019V173.655H44.0771V173.526Z" fill="#EBEBEB"/>
<path d="M115.883 173.593H88.1433V173.722H115.883V173.593Z" fill="#EBEBEB"/>
<path d="M64.3589 176.184H54.4753V176.312H64.3589V176.184Z" fill="#EBEBEB"/>
<path d="M229.706 176.122H219.802V176.251H229.706V176.122Z" fill="#EBEBEB"/>
<path d="M215.213 176.122H199.613V176.251H215.213V176.122Z" fill="#EBEBEB"/>
<path d="M191.022 175.272H169.102V175.401H191.022V175.272Z" fill="#EBEBEB"/>
<path d="M122.064 145.652H22.6152C21.8361 145.651 21.0894 145.341 20.539 144.789C19.9886 144.238 19.6794 143.491 19.6794 142.711V2.91511C19.6862 2.1405 19.9984 1.39986 20.548 0.854043C21.0977 0.308228 21.8405 0.00132693 22.6152 0H122.064C122.844 0 123.592 0.30984 124.143 0.861358C124.695 1.41288 125.004 2.16089 125.004 2.94086V142.711C125.004 143.491 124.695 144.239 124.143 144.791C123.592 145.342 122.844 145.652 122.064 145.652ZM22.6152 0.103008C21.8702 0.104372 21.1563 0.401247 20.63 0.92847C20.1038 1.45569 19.8082 2.17018 19.8082 2.91511V142.711C19.8082 143.456 20.1038 144.171 20.63 144.698C21.1563 145.225 21.8702 145.522 22.6152 145.524H122.064C122.809 145.522 123.523 145.225 124.05 144.698C124.578 144.171 124.874 143.457 124.876 142.711V2.91511C124.874 2.16971 124.578 1.45523 124.05 0.928156C123.523 0.40108 122.809 0.104369 122.064 0.103008H22.6152Z" fill="#EBEBEB"/>
<path d="M233.471 145.652H134.018C133.238 145.651 132.491 145.341 131.94 144.789C131.389 144.238 131.078 143.491 131.077 142.711V2.91511C131.085 2.14003 131.398 1.39939 131.949 0.853721C132.499 0.308048 133.243 0.00131246 134.018 0H233.471C234.245 0.00268051 234.987 0.31018 235.535 0.85585C236.084 1.40152 236.395 2.14139 236.402 2.91511V142.711C236.402 143.49 236.093 144.236 235.544 144.787C234.995 145.339 234.249 145.65 233.471 145.652ZM134.018 0.103008C133.272 0.104369 132.558 0.40108 132.031 0.928156C131.504 1.45523 131.207 2.16971 131.206 2.91511V142.711C131.207 143.457 131.504 144.171 132.031 144.698C132.558 145.225 133.272 145.522 134.018 145.524H233.471C234.217 145.522 234.931 145.225 235.458 144.698C235.985 144.171 236.282 143.457 236.283 142.711V2.91511C236.282 2.16971 235.985 1.45523 235.458 0.928156C234.931 0.40108 234.217 0.104369 233.471 0.103008H134.018Z" fill="#EBEBEB"/>
<path d="M216.254 18.5516H156.458V89.946H216.254V18.5516Z" fill="#E6E6E6"/>
<path d="M217.747 18.5516H157.951V89.946H217.747V18.5516Z" fill="#F5F5F5"/>
<path d="M215.069 86.933V21.5595L160.634 21.5595V86.933H215.069Z" fill="white"/>
<path d="M215.064 86.933V21.5595H213.936V86.933H215.064Z" fill="#E6E6E6"/>
<path d="M216.634 71.4459H159.058V75.4889H216.634V71.4459Z" fill="#F5F5F5"/>
<path d="M220.667 13.5712H153.537C153.428 13.5712 153.323 13.6147 153.246 13.6919C153.169 13.7692 153.125 13.874 153.125 13.9833C153.125 14.0926 153.169 14.1974 153.246 14.2746C153.323 14.3519 153.428 14.3953 153.537 14.3953H220.667C220.776 14.3953 220.881 14.3519 220.958 14.2746C221.036 14.1974 221.079 14.0926 221.079 13.9833C221.079 13.874 221.036 13.7692 220.958 13.6919C220.881 13.6147 220.776 13.5712 220.667 13.5712Z" fill="#E6E6E6"/>
<path d="M221.079 16.0434C222.217 16.0434 223.14 15.1211 223.14 13.9833C223.14 12.8455 222.217 11.9231 221.079 11.9231C219.942 11.9231 219.019 12.8455 219.019 13.9833C219.019 15.1211 219.942 16.0434 221.079 16.0434Z" fill="#E6E6E6"/>
<path d="M157.014 16.2906C156.866 16.2906 156.725 16.232 156.621 16.1276C156.516 16.0233 156.458 15.8818 156.458 15.7343V14.5394C156.459 14.3923 156.518 14.2516 156.622 14.1476C156.726 14.0436 156.867 13.9845 157.014 13.9832C157.162 13.9832 157.303 14.0418 157.407 14.1461C157.512 14.2504 157.57 14.3919 157.57 14.5394V15.7343C157.57 15.8818 157.512 16.0233 157.407 16.1276C157.303 16.232 157.162 16.2906 157.014 16.2906Z" fill="#E6E6E6"/>
<path d="M214.446 16.2906C214.298 16.2906 214.157 16.232 214.053 16.1276C213.948 16.0233 213.89 15.8818 213.89 15.7343V14.5394C213.891 14.3923 213.95 14.2516 214.054 14.1476C214.158 14.0436 214.299 13.9845 214.446 13.9832C214.593 13.9832 214.735 14.0418 214.839 14.1461C214.944 14.2504 215.002 14.3919 215.002 14.5394V15.7343C215.002 15.8818 214.944 16.0233 214.839 16.1276C214.735 16.232 214.593 16.2906 214.446 16.2906Z" fill="#E6E6E6"/>
<path opacity="0.5" d="M220.533 13.9832H159.058V43.9686H220.533V13.9832Z" fill="#E0E0E0"/>
<path d="M163.648 16.0434C164.786 16.0434 165.708 15.1211 165.708 13.9833C165.708 12.8455 164.786 11.9231 163.648 11.9231C162.51 11.9231 161.588 12.8455 161.588 13.9833C161.588 15.1211 162.51 16.0434 163.648 16.0434Z" fill="#E6E6E6"/>
<path d="M46.2036 97.6149H24.3918L26.3232 72.0845H44.2723L46.2036 97.6149Z" fill="#EBEBEB"/>
<path d="M41.4191 97.6149H37.6696L36.8713 72.0845H40.3324L41.4191 97.6149Z" fill="#F5F5F5"/>
<path d="M36.3923 97.6149H34.2085V168.623H36.3923V97.6149Z" fill="#F0F0F0"/>
<path d="M36.1247 108.075H34.4766C33.6744 108.075 33.0242 108.726 33.0242 109.528V114.889C33.0242 115.691 33.6744 116.342 34.4766 116.342H36.1247C36.9268 116.342 37.5771 115.691 37.5771 114.889V109.528C37.5771 108.726 36.9268 108.075 36.1247 108.075Z" fill="#F0F0F0"/>
<path d="M36.1247 121.322H34.4766C33.6744 121.322 33.0242 121.972 33.0242 122.774V128.136C33.0242 128.938 33.6744 129.588 34.4766 129.588H36.1247C36.9268 129.588 37.5771 128.938 37.5771 128.136V122.774C37.5771 121.972 36.9268 121.322 36.1247 121.322Z" fill="#F0F0F0"/>
<path d="M38.7511 168.623H31.8445C31.8445 168.232 31.9997 167.858 32.2759 167.581C32.5522 167.305 32.9268 167.15 33.3175 167.15H37.2781C37.6688 167.15 38.0434 167.305 38.3197 167.581C38.5959 167.858 38.7511 168.232 38.7511 168.623Z" fill="#F0F0F0"/>
<path d="M36.3923 97.6149H34.2085V98.9488H36.3923V97.6149Z" fill="#E0E0E0"/>
<path d="M49.6034 76.4314L109.883 76.4314L109.883 15.9867L49.6034 15.9867L49.6034 76.4314Z" fill="#F0F0F0"/>
<path d="M49.6034 15.9867H48.563V76.4314H49.6034V15.9867Z" fill="#E0E0E0"/>
<path d="M54.9287 72.6099H104.563V19.8032L54.9287 19.8032L54.9287 72.6099Z" fill="#FAFAFA"/>
<path d="M76.8895 60.9082H82.6064C88.6595 60.9082 93.5664 56.0012 93.5664 49.9482V42.4647C93.5664 36.4117 88.6595 31.5048 82.6064 31.5048L76.8895 31.5048C70.8365 31.5048 65.9296 36.4117 65.9296 42.4647V49.9482C65.9296 56.0012 70.8365 60.9082 76.8895 60.9082Z" fill="#F5F5F5"/>
<path d="M209.887 99.1136H186.942V168.618H209.887V99.1136Z" fill="#E6E6E6"/>
<path d="M198.685 168.623H209.887V159.028H186.942L198.685 168.623Z" fill="#FAFAFA"/>
<path d="M118.381 99.1136H95.4363V168.618H118.381V99.1136Z" fill="#E6E6E6"/>
<path d="M209.882 99.1136H108.605V165.316H209.882V99.1136Z" fill="#FAFAFA"/>
<path d="M119.808 168.623H108.611V159.028H131.556L119.808 168.623Z" fill="#FAFAFA"/>
<path d="M201.199 123.784H117.3V140.353H201.199V123.784Z" fill="#F0F0F0"/>
<path d="M201.199 143.896H117.3V160.465H201.199V143.896Z" fill="#F0F0F0"/>
<path d="M181.215 125.556H137.278C136.428 125.556 135.613 125.218 135.013 124.617C134.412 124.016 134.074 123.202 134.074 122.352H184.419C184.42 122.773 184.337 123.19 184.177 123.579C184.016 123.968 183.78 124.321 183.482 124.619C183.185 124.916 182.831 125.152 182.442 125.313C182.053 125.474 181.636 125.556 181.215 125.556Z" fill="#FAFAFA"/>
<path d="M201.199 103.677H117.3V120.246H201.199V103.677Z" fill="#F0F0F0"/>
<path d="M181.215 105.449H137.278C136.428 105.447 135.613 105.109 135.012 104.507C134.412 103.905 134.074 103.09 134.074 102.24H184.419C184.42 102.661 184.337 103.078 184.177 103.467C184.016 103.857 183.78 104.21 183.483 104.508C183.185 104.806 182.832 105.043 182.443 105.204C182.054 105.366 181.637 105.449 181.215 105.449Z" fill="#FAFAFA"/>
<path d="M181.215 145.668H137.278C136.428 145.666 135.613 145.328 135.012 144.726C134.412 144.125 134.074 143.309 134.074 142.459H184.419C184.42 142.88 184.337 143.297 184.177 143.687C184.016 144.076 183.78 144.43 183.483 144.728C183.185 145.026 182.832 145.262 182.443 145.423C182.054 145.585 181.637 145.668 181.215 145.668Z" fill="#FAFAFA"/>
<path d="M128.759 191.882C183.91 191.882 228.62 189.272 228.62 186.052C228.62 182.832 183.91 180.222 128.759 180.222C73.6077 180.222 28.8987 182.832 28.8987 186.052C28.8987 189.272 73.6077 191.882 128.759 191.882Z" fill="#F5F5F5"/>
<path d="M38.9113 83.6883H115.775C113.494 83.6601 111.307 82.7746 109.648 81.2078C107.99 79.641 106.982 77.5075 106.824 75.2314L105.464 52.3226H28.6055L29.96 75.2314C30.1176 77.5075 31.1259 79.641 32.7843 81.2078C34.4427 82.7746 36.63 83.6601 38.9113 83.6883Z" fill="#A8A8A8"/>
<path opacity="0.6" d="M38.9113 83.6883H115.775C113.494 83.6601 111.307 82.7746 109.648 81.2078C107.99 79.641 106.982 77.5075 106.824 75.2314L105.464 52.3226H28.6055L29.96 75.2314C30.1176 77.5075 31.1259 79.641 32.7843 81.2078C34.4427 82.7746 36.63 83.6601 38.9113 83.6883Z" fill="white"/>
<path d="M121.472 37.0826H53.0491C51.9583 37.0697 50.8767 37.2835 49.8729 37.7103C48.869 38.1372 47.9646 38.7678 47.2171 39.5623C46.4696 40.3568 45.8952 41.2978 45.5302 42.3258C45.1653 43.3538 45.0177 44.4464 45.0969 45.5344L46.8687 75.2365C46.9495 76.3248 46.803 77.4181 46.4387 78.4468C46.0743 79.4755 45.4999 80.4172 44.7521 81.212C44.0043 82.0068 43.0993 82.6374 42.0947 83.0637C41.09 83.49 40.0077 83.7027 38.9165 83.6883H115.775C116.867 83.7027 117.949 83.49 118.954 83.0637C119.958 82.6374 120.863 82.0068 121.611 81.212C122.359 80.4172 122.933 79.4755 123.298 78.4468C123.662 77.4181 123.808 76.3248 123.728 75.2365L123.918 78.4503L121.971 45.555C121.887 44.465 122.032 43.3695 122.395 42.3383C122.758 41.3072 123.332 40.3629 124.08 39.5658C124.828 38.7688 125.734 38.1363 126.74 37.7087C127.746 37.2812 128.83 37.0679 129.923 37.0826H121.472Z" fill="#A8A8A8"/>
<path d="M129.924 37.0827H53.0493C55.3306 37.1084 57.5185 37.9923 59.1773 39.5586C60.8361 41.1248 61.8441 43.2584 62.0006 45.5344L68.6189 157.138H145.478L138.875 45.555C138.721 43.2762 137.715 41.1389 136.056 39.5688C134.397 37.9988 132.208 37.1111 129.924 37.0827Z" fill="#A8A8A8"/>
<path opacity="0.8" d="M129.924 37.0827H53.0493C55.3306 37.1084 57.5185 37.9923 59.1773 39.5586C60.8361 41.1248 61.8441 43.2584 62.0006 45.5344L68.6189 157.138H145.478L138.875 45.555C138.721 43.2762 137.715 41.1389 136.056 39.5688C134.397 37.9988 132.208 37.1111 129.924 37.0827Z" fill="white"/>
<path d="M87.8965 68.85H73.6506L72.7905 54.5938H87.0416L87.8965 68.85ZM75.1957 67.171H86.0991L85.4965 56.2677H74.5725L75.1957 67.171Z" fill="white"/>
<path d="M89.8843 102.384H75.623L74.7783 88.1227H89.0397L89.8843 102.384ZM77.199 100.705H88.1023L87.4585 89.8017H76.5552L77.199 100.705Z" fill="white"/>
<path d="M91.8673 135.918H77.606L76.7407 121.657H91.0021L91.8673 135.918ZM79.1871 134.239H90.0905L89.4415 123.336H78.5382L79.1871 134.239Z" fill="white"/>
<path d="M127.647 54.5887H94.8596V56.2677H127.647V54.5887Z" fill="white"/>
<path d="M124.165 60.8825H95.2305V62.5615H124.165V60.8825Z" fill="white"/>
<path d="M128.388 67.171H95.6011V68.85H128.388V67.171Z" fill="white"/>
<path d="M129.63 88.1227H96.8425V89.8017H129.63V88.1227Z" fill="white"/>
<path d="M116.46 94.4165H97.2134V96.0955H116.46V94.4165Z" fill="white"/>
<path d="M107.525 100.705H97.5896V102.384H107.525V100.705Z" fill="white"/>
<path d="M130.377 100.705H113.983V102.384H130.377V100.705Z" fill="white"/>
<path d="M131.613 121.657H98.8254V123.336H131.613V121.657Z" fill="white"/>
<path d="M131.989 127.95H99.2017V129.63H131.989V127.95Z" fill="white"/>
<path d="M117.707 134.239H99.5725V135.918H117.707V134.239Z" fill="white"/>
<path d="M81.7007 65.4921C81.3444 65.4925 81.0015 65.356 80.7428 65.1109L77.256 61.8044C77.1227 61.6783 77.0156 61.5271 76.9408 61.3596C76.866 61.1921 76.8249 61.0114 76.8199 60.828C76.8097 60.4576 76.9471 60.0983 77.2019 59.8292C77.4566 59.5601 77.8079 59.4033 78.1783 59.3931C78.5487 59.383 78.908 59.5204 79.1771 59.7752L81.6595 62.1186L87.2477 56.1802C87.5017 55.9104 87.8526 55.7526 88.223 55.7415C88.5934 55.7304 88.9531 55.8669 89.2228 56.121C89.4926 56.375 89.6504 56.7259 89.6615 57.0963C89.6726 57.4667 89.5361 57.8264 89.2821 58.0961L82.736 65.0543C82.6105 65.1891 82.4592 65.2973 82.2911 65.3725C82.123 65.4477 81.9415 65.4883 81.7574 65.4921H81.7007Z" fill="#A8A8A8"/>
<path d="M83.6883 99.0261C83.3317 99.0275 82.9884 98.891 82.7303 98.6449L79.2281 95.3384C79.0901 95.2138 78.9784 95.0629 78.8996 94.8946C78.8207 94.7262 78.7763 94.5438 78.7689 94.3581C78.7615 94.1723 78.7913 93.987 78.8565 93.8129C78.9217 93.6388 79.0211 93.4795 79.1487 93.3444C79.2763 93.2092 79.4297 93.1009 79.5997 93.0258C79.7697 92.9507 79.9531 92.9103 80.1389 92.907C80.3248 92.9038 80.5095 92.9376 80.682 93.0067C80.8546 93.0758 81.0117 93.1786 81.144 93.3092L83.6316 95.6526L89.2146 89.7142C89.4687 89.4444 89.8195 89.2866 90.1899 89.2755C90.5604 89.2644 90.92 89.4009 91.1898 89.655C91.4596 89.9091 91.6174 90.2599 91.6285 90.6303C91.6396 91.0007 91.5031 91.3604 91.249 91.6302L84.7029 98.5883C84.5782 98.7227 84.4278 98.8307 84.2606 98.9059C84.0934 98.9811 83.9128 99.0219 83.7295 99.0261H83.6883Z" fill="#A8A8A8"/>
<path d="M85.6712 132.565C85.314 132.565 84.9708 132.426 84.7132 132.179L81.211 128.872C81.073 128.748 80.9614 128.597 80.8825 128.429C80.8037 128.26 80.7592 128.078 80.7518 127.892C80.7444 127.706 80.7742 127.521 80.8394 127.347C80.9047 127.173 81.004 127.014 81.1316 126.878C81.2592 126.743 81.4126 126.635 81.5826 126.56C81.7527 126.485 81.936 126.444 82.1219 126.441C82.3077 126.438 82.4924 126.472 82.665 126.541C82.8376 126.61 82.9946 126.713 83.1269 126.843L85.6145 129.187L91.2027 123.248C91.4644 123.024 91.8 122.904 92.1448 122.912C92.4897 122.92 92.8194 123.055 93.0702 123.292C93.3211 123.529 93.4754 123.85 93.5033 124.194C93.5313 124.538 93.4309 124.88 93.2216 125.154L86.6755 132.112C86.5495 132.246 86.3981 132.354 86.2301 132.429C86.0621 132.504 85.8809 132.545 85.697 132.55L85.6712 132.565Z" fill="#A8A8A8"/>
<path d="M159.536 53.6275L149.533 56.0863L179.384 177.527L189.387 175.068L159.536 53.6275Z" fill="#A8A8A8"/>
<path opacity="0.2" d="M159.531 53.6265L156.485 54.3752L186.336 175.816L189.382 175.067L159.531 53.6265Z" fill="black"/>
<path d="M188.632 176.875L180.879 178.78C180.258 178.933 179.878 179.561 180.031 180.182L181.329 185.464C181.482 186.085 182.109 186.465 182.731 186.313L190.483 184.407C191.105 184.254 191.485 183.627 191.332 183.005L190.034 177.724C189.881 177.102 189.253 176.722 188.632 176.875Z" fill="#A8A8A8"/>
<path opacity="0.7" d="M188.632 176.875L180.879 178.78C180.258 178.933 179.878 179.561 180.031 180.182L181.329 185.464C181.482 186.085 182.109 186.465 182.731 186.313L190.483 184.407C191.105 184.254 191.485 183.627 191.332 183.005L190.034 177.724C189.881 177.102 189.253 176.722 188.632 176.875Z" fill="white"/>
<path d="M188.692 173.321L179.184 175.658C178.61 175.799 178.258 176.38 178.4 176.954L179.25 180.415C179.391 180.99 179.972 181.341 180.546 181.2L190.054 178.863C190.629 178.721 190.98 178.141 190.839 177.567L189.988 174.106C189.847 173.531 189.266 173.18 188.692 173.321Z" fill="#E0E0E0"/>
<path d="M159.538 53.6153L149.536 56.0772L150.71 47.7079L151.462 42.3412L154.619 46.7447L159.538 53.6153Z" fill="#E0E0E0"/>
<path d="M154.619 46.7447L150.71 47.7079L151.462 42.3412L154.619 46.7447Z" fill="#A8A8A8"/>
<path d="M185.372 45.6734C185.32 48.7637 184.723 54.5887 186.35 56.4892C182.609 57.7195 179.255 59.907 176.621 62.8344C174.391 59.188 177.301 57.2257 177.301 57.2257C180.51 56.1956 180.314 53.7801 179.64 51.5603L185.372 45.6734Z" fill="#FFB573"/>
<path d="M175.674 59.6876C176.524 56.5304 174.129 56.0823 178.12 54.5372C181.241 53.3011 187.139 53.126 188.524 54.12C189.291 54.6763 188.236 56.6231 188.236 56.6231L175.674 59.6876Z" fill="#263238"/>
<path d="M192.974 59.0078C193.206 59.3786 193.37 59.6619 193.556 59.9864C193.741 60.3108 193.896 60.6096 194.071 60.9237C194.4 61.5521 194.709 62.1804 195.008 62.8191C195.606 64.0912 196.126 65.3942 196.605 66.7127C197.567 69.3834 198.257 72.1442 198.665 74.9533L198.799 76.0143C198.825 76.1637 198.845 76.4315 198.861 76.6632C198.876 76.895 198.861 77.1062 198.861 77.3122C198.849 78.072 198.792 78.8304 198.691 79.5835C198.51 81.005 198.237 82.3493 197.939 83.7038C197.331 86.3457 196.562 88.948 195.637 91.4963C195.514 91.8418 195.269 92.1307 194.949 92.3091C194.628 92.4874 194.254 92.543 193.895 92.4654C193.537 92.3877 193.219 92.1823 193.001 91.8873C192.783 91.5924 192.68 91.2282 192.711 90.8628C192.917 88.2464 193.159 85.6094 193.35 83.0342C193.442 81.7467 193.515 80.4591 193.535 79.2436C193.535 78.641 193.535 78.0435 193.479 77.544L193.432 77.1989L193.365 76.8641L193.175 75.9679C192.624 73.5543 191.884 71.188 190.96 68.8913C190.496 67.7377 189.997 66.5943 189.472 65.4664C189.211 64.8998 188.938 64.3436 188.653 63.7976L188.22 62.9839L187.813 62.2371L187.741 62.1032C187.366 61.4116 187.275 60.601 187.488 59.8435C187.701 59.086 188.2 58.4413 188.881 58.0464C189.561 57.6515 190.369 57.5374 191.132 57.7285C191.896 57.9195 192.554 58.4006 192.969 59.0696L192.974 59.0078Z" fill="#FFB573"/>
<path d="M191.593 92.5367L192.021 91.8259L193.226 89.7967L195.436 91.0482C195.894 93.1084 194.493 94.9316 194.493 94.9316L193.87 95.4466C193.657 95.6314 193.383 95.7284 193.102 95.7179C192.82 95.7073 192.554 95.5901 192.356 95.39L191.877 94.9471C191.575 94.6299 191.385 94.2236 191.334 93.789C191.283 93.3545 191.374 92.9151 191.593 92.5367Z" fill="#FFB573"/>
<path d="M162.236 91.486L161.881 90.1984C161.798 89.8955 161.599 89.6374 161.327 89.4795C161.056 89.3216 160.733 89.2764 160.429 89.3538L158.884 89.7503L157.931 89.9873C157.43 90.118 156.985 90.4083 156.663 90.8144C156.342 91.2205 156.161 91.7202 156.149 92.238V93.0054C156.146 93.3396 156.271 93.6623 156.498 93.908C156.725 94.1537 157.036 94.3042 157.369 94.329L158.322 94.4217C159.752 94.194 161.062 93.4898 162.041 92.4234C162.147 92.2947 162.22 92.1421 162.254 91.9788C162.288 91.8155 162.282 91.6464 162.236 91.486Z" fill="#FFB573"/>
<path d="M190.398 56.7417C193.102 57.9417 195.58 60.8001 197.609 66.0896C196.96 68.2682 190.259 71.8374 190.259 71.8374C190.259 71.8374 181.9 54.115 190.398 56.7417Z" fill="#A8A8A8"/>
<path d="M168.03 63.5143C168.056 65.4766 164.806 70.0244 168.545 72.6614C168.87 76.6323 169.308 80.5414 170.157 87.0566H190.156C188.256 79.8461 189.899 75.0048 192.948 62.3349C193.122 61.654 193.147 60.9436 193.021 60.2523C192.895 59.5609 192.621 58.9049 192.218 58.3292C191.815 57.7536 191.292 57.2718 190.686 56.9169C190.079 56.5619 189.403 56.3423 188.704 56.2729C187.906 56.1956 187.061 56.1287 186.201 56.0823C183.176 55.8657 180.14 55.8657 177.116 56.0823C176.132 56.1699 175.117 56.2935 174.144 56.4274C172.442 56.6753 170.888 57.5284 169.765 58.8302C168.642 60.132 168.026 61.7951 168.03 63.5143Z" fill="#A8A8A8"/>
<path d="M174.654 61.6035C174.7 63.0765 174.654 64.4877 174.654 65.9298C174.654 67.3719 174.561 68.7985 174.469 70.2406C174.309 73.1642 173.965 76.0748 173.439 78.955C173.377 79.3207 173.279 79.7018 173.191 80.0727C173.104 80.4435 173.027 80.8143 172.908 81.2057L172.743 81.7774L172.656 82.0659C172.623 82.1954 172.581 82.3227 172.532 82.447C172.317 83.0017 172.022 83.5222 171.657 83.9921C171.154 84.644 170.605 85.2585 170.014 85.8308C169.473 86.3716 168.922 86.8608 168.365 87.3759C166.175 89.2628 163.848 90.9843 161.402 92.5262C161.095 92.7192 160.729 92.7954 160.37 92.7413C160.012 92.6871 159.685 92.506 159.448 92.231C159.212 91.956 159.082 91.6053 159.083 91.2426C159.083 90.88 159.213 90.5295 159.45 90.2549C161.289 88.1587 163.184 86.078 164.951 84.0179C165.383 83.5028 165.806 82.9878 166.207 82.4727C166.585 82.0153 166.929 81.5316 167.238 81.0255C167.361 80.8349 167.438 80.6032 167.371 80.7319C167.305 80.8607 167.371 80.665 167.371 80.6083L167.418 80.3817L167.516 79.9336C167.588 79.6452 167.629 79.3207 167.681 79.0065C167.732 78.6924 167.794 78.3782 167.825 78.0486C168.175 75.4476 168.34 72.7077 168.438 69.9677C168.535 67.2277 168.597 64.4362 168.613 61.7271C168.608 61.3301 168.682 60.9361 168.83 60.5676C168.978 60.1991 169.197 59.8633 169.475 59.5795C170.035 59.0063 170.801 58.6792 171.603 58.6703C172.404 58.6614 173.177 58.9715 173.75 59.5322C174.323 60.0928 174.65 60.8583 174.659 61.6601L174.654 61.6035Z" fill="#FFB573"/>
<path d="M172.449 56.8859C169.982 58.1116 167.536 60.4911 166.521 65.9402C167.165 68.0982 175.982 72.2545 175.982 72.2545C175.982 72.2545 180.891 53.7338 172.449 56.8859Z" fill="#A8A8A8"/>
<path d="M172.99 43.7061C173.057 44.0923 172.903 44.4529 172.645 44.4992C172.388 44.5456 172.13 44.2778 172.063 43.8863C171.996 43.4949 172.156 43.1395 172.408 43.0932C172.661 43.0468 172.928 43.3146 172.99 43.7061Z" fill="#263238"/>
<path d="M172.537 43.088L171.553 43.0055C171.553 43.0055 172.146 43.639 172.537 43.088Z" fill="#263238"/>
<path d="M172.897 44.1386C172.695 45.0988 172.364 46.0274 171.914 46.8992C172.139 47.0046 172.385 47.0592 172.635 47.0592C172.884 47.0592 173.13 47.0046 173.356 46.8992L172.897 44.1386Z" fill="#ED893E"/>
<path d="M171.97 41.0485C171.911 41.048 171.855 41.026 171.811 40.9867C171.789 40.9651 171.772 40.9394 171.76 40.9111C171.748 40.8829 171.742 40.8525 171.742 40.8218C171.742 40.7912 171.748 40.7608 171.76 40.7325C171.772 40.7043 171.789 40.6786 171.811 40.657C172.062 40.3799 172.376 40.1664 172.726 40.0339C173.076 39.9014 173.453 39.8537 173.825 39.8948C173.854 39.9003 173.882 39.9117 173.907 39.9282C173.932 39.9447 173.954 39.966 173.971 39.991C173.987 40.0159 173.999 40.0439 174.005 40.0734C174.011 40.1028 174.011 40.1332 174.005 40.1626C173.992 40.2243 173.956 40.2787 173.904 40.3143C173.852 40.3498 173.789 40.3638 173.727 40.3532C173.432 40.3264 173.135 40.3688 172.86 40.477C172.584 40.5852 172.338 40.7562 172.14 40.9764C172.095 41.0219 172.034 41.0478 171.97 41.0485Z" fill="#263238"/>
<path d="M185.738 39.8691C186.253 44.7104 186.562 46.7499 184.589 49.6548C181.617 54.0583 175.643 53.775 173.722 49.2273C171.991 45.107 171.451 37.8965 175.756 35.0844C176.682 34.4527 177.758 34.0755 178.876 33.9907C179.994 33.9058 181.115 34.1162 182.126 34.6008C183.137 35.0854 184.002 35.8272 184.636 36.7518C185.27 37.6764 185.65 38.7514 185.738 39.8691Z" fill="#FFB573"/>
<path d="M176.931 43.4073C173.84 42.8613 173.093 39.3127 174.237 37.7676C169.03 37.9994 165.522 32.1743 171.147 28.8524C176.771 25.5304 181.736 30.6756 181.334 32.6173C188.261 31.9889 192.32 37.6904 188.545 41.9291C193.525 42.7377 200.983 48.3516 195.508 54.2488C202.909 55.3355 203.712 78.5122 183.564 74.3919C162.324 70.045 180.778 51.5603 180.778 51.5603C180.778 51.5603 175.396 50.0461 176.931 43.4073Z" fill="#263238"/>
<path d="M196.662 55.7578L196.224 55.49C198.094 52.4513 198.403 49.6855 197.141 47.2494C195.518 44.1592 191.583 42.336 188.529 42.1609L188.56 41.6458C191.753 41.8261 195.889 43.706 197.599 47.0074C198.928 49.5825 198.603 52.6006 196.662 55.7578Z" fill="#263238"/>
<path d="M190.805 42.4493C192.582 42.1557 191.743 39.2561 190.435 38.4887C189.126 37.7213 182.858 38.9677 183.549 40.966C184.239 42.9643 188.421 42.8459 190.805 42.4493Z" fill="white"/>
<path d="M191.125 41.7179C192.896 41.378 192.186 39.0294 190.857 38.2929C189.528 37.5564 184.053 38.1024 184.8 40.075C185.547 42.0476 188.755 42.1866 191.125 41.7179Z" fill="#A8A8A8"/>
<path d="M172.563 38.3548C171.376 38.3388 170.229 37.9274 169.303 37.1857C167.825 36.0371 167.011 34.3169 167.243 32.8027C167.382 31.8396 167.984 30.5159 170.086 29.6764L170.276 30.1554C168.793 30.7477 167.923 31.7005 167.753 32.8748C167.567 34.2139 168.304 35.7436 169.638 36.7788C170.256 37.2948 171.002 37.6364 171.797 37.7686C172.591 37.9008 173.407 37.8187 174.16 37.5307L174.355 38.0097C173.787 38.2424 173.177 38.3597 172.563 38.3548Z" fill="#263238"/>
<path d="M178.151 43.9738C177.919 45.2408 177.847 45.7816 177.188 46.3739C177.001 46.5835 176.754 46.7316 176.482 46.7988C176.209 46.8661 175.922 46.8493 175.658 46.7508C175.395 46.6523 175.168 46.4766 175.006 46.2467C174.844 46.0168 174.756 45.7434 174.752 45.4623C174.649 44.2983 175.046 42.4236 176.225 42.0322C177.404 41.6407 178.383 42.712 178.151 43.9738Z" fill="#FFB573"/>
<path d="M175.308 48.0065L174.891 47.2597C174.873 47.2292 174.864 47.1945 174.864 47.1593C174.864 47.124 174.873 47.0894 174.891 47.0588L175.308 46.3172C175.326 46.285 175.352 46.2581 175.383 46.2395C175.415 46.2208 175.451 46.2109 175.488 46.2109C175.525 46.2109 175.561 46.2208 175.593 46.2395C175.624 46.2581 175.651 46.285 175.668 46.3172L176.086 47.0588C176.103 47.0894 176.112 47.124 176.112 47.1593C176.112 47.1945 176.103 47.2292 176.086 47.2597L175.668 48.0065C175.651 48.0387 175.624 48.0655 175.593 48.0842C175.561 48.1029 175.525 48.1128 175.488 48.1128C175.451 48.1128 175.415 48.1029 175.383 48.0842C175.352 48.0655 175.326 48.0387 175.308 48.0065Z" fill="white"/>
<path d="M170.168 87.0412C170.168 87.0412 169.462 112.865 168.52 129.851C167.521 145.441 166.238 181.901 166.238 181.901L170.178 182.107C170.178 182.107 178.893 151.426 178.527 132.89C188.756 106.963 185.078 87.8189 185.078 87.8189L170.168 87.0412Z" fill="#FFB573"/>
<path d="M166.532 180.263C166.444 180.2 166.338 180.165 166.23 180.165C166.122 180.165 166.017 180.2 165.929 180.263C164.038 181.666 161.748 182.428 159.393 182.436C156.777 182.55 157.421 183.981 161.165 184.46C165.568 185.006 166.511 185.913 167.932 186.268C169.354 186.623 170.482 185.542 170.456 182.555C170.454 182.453 170.421 182.354 170.362 182.27C170.304 182.187 170.222 182.123 170.126 182.086C168.861 181.622 167.654 181.01 166.532 180.263Z" fill="#263238"/>
<path d="M175.396 87.0412C175.396 87.0412 182.606 117.604 186.783 131.849C191.176 146.785 194.658 180.871 194.632 181.999H198.042C198.042 181.999 202.445 154.372 197.012 131.834C196.497 95.2664 190.193 87.067 190.193 87.067L175.396 87.0412Z" fill="#FFB573"/>
<path d="M194.545 180.778C194.456 180.741 194.358 180.735 194.265 180.759C194.172 180.783 194.089 180.837 194.03 180.912C193.149 182.055 192.51 183.322 189.909 184.435C187.757 185.351 188.946 186.608 192.315 186.15C196.275 185.604 196.332 186.247 197.666 186.247C199 186.247 199.628 184.919 198.655 182.029C198.624 181.934 198.567 181.848 198.491 181.783C198.414 181.718 198.321 181.674 198.222 181.658C196.965 181.515 195.73 181.219 194.545 180.778Z" fill="#263238"/>
<path d="M170.168 87.0411C170.168 87.0411 166.768 109.672 167.247 140.605C178.001 140.544 188.686 138.895 198.958 135.712C198.958 135.712 199.113 95.6319 190.167 87.0566C185.001 85.666 170.286 86.5879 170.168 87.0411Z" fill="#263238"/>
<path opacity="0.2" d="M170.564 136.212C170.531 136.212 170.499 136.199 170.475 136.176C170.451 136.153 170.437 136.121 170.435 136.088C169.472 116.336 171.811 88.4523 171.831 88.1897C171.832 88.1725 171.836 88.1556 171.843 88.1401C171.851 88.1246 171.861 88.1109 171.875 88.0997C171.888 88.0886 171.903 88.0803 171.919 88.0754C171.936 88.0705 171.953 88.069 171.97 88.0712C171.987 88.0725 172.004 88.0771 172.019 88.0848C172.034 88.0925 172.047 88.1032 172.058 88.1161C172.069 88.129 172.078 88.144 172.083 88.1602C172.088 88.1763 172.09 88.1933 172.089 88.2103C172.063 88.4935 169.73 116.357 170.693 136.109C170.694 136.126 170.692 136.143 170.687 136.159C170.681 136.175 170.672 136.19 170.661 136.203C170.649 136.215 170.635 136.225 170.619 136.232C170.603 136.239 170.586 136.243 170.569 136.243L170.564 136.212Z" fill="white"/>
<path opacity="0.2" d="M184.022 116.46L186.953 100.937L188.132 104.65L184.022 116.46Z" fill="black"/>
</svg>
