<svg xmlns="http://www.w3.org/2000/svg" width="64" height="64" viewBox="0 0 64 64" fill="none">
  <rect width="64" height="64" rx="8" fill="#E1ECFF"/>
  <mask id="mask0_265_1061" style="mask-type:alpha" maskUnits="userSpaceOnUse" x="16" y="16" width="32" height="32">
    <rect x="16" y="16" width="32" height="32" fill="#D9D9D9"/>
  </mask>
  <g mask="url(#mask0_265_1061)">
    <path d="M24.9335 41.7329L21.2668 40.9329C20.9335 40.8663 20.6668 40.6938 20.4668 40.4156C20.2668 40.1383 20.1891 39.8329 20.2335 39.4996L20.6002 35.7329L18.1002 32.8663C17.878 32.6218 17.7668 32.3329 17.7668 31.9996C17.7668 31.6663 17.878 31.3774 18.1002 31.1329L20.6002 28.2663L20.2335 24.4996C20.1891 24.1663 20.2668 23.8609 20.4668 23.5836C20.6668 23.3054 20.9335 23.1329 21.2668 23.0663L24.9335 22.2663L26.8668 18.9996C27.0446 18.7107 27.2891 18.5218 27.6002 18.4329C27.9113 18.3441 28.2224 18.3552 28.5335 18.4663L32.0002 19.9329L35.4668 18.4663C35.778 18.3552 36.0891 18.3441 36.4002 18.4329C36.7113 18.5218 36.9557 18.7107 37.1335 18.9996L39.0668 22.2663L42.7335 23.0663C43.0668 23.1329 43.3335 23.3054 43.5335 23.5836C43.7335 23.8609 43.8113 24.1663 43.7668 24.4996L43.4002 28.2663L45.9002 31.1329C46.1224 31.3774 46.2335 31.6663 46.2335 31.9996C46.2335 32.3329 46.1224 32.6218 45.9002 32.8663L43.4002 35.7329L43.7668 39.4996C43.8113 39.8329 43.7335 40.1383 43.5335 40.4156C43.3335 40.6938 43.0668 40.8663 42.7335 40.9329L39.0668 41.7329L37.1335 44.9996C36.9557 45.2885 36.7113 45.4774 36.4002 45.5663C36.0891 45.6552 35.778 45.6441 35.4668 45.5329L32.0002 44.0663L28.5335 45.5329C28.2224 45.6441 27.9113 45.6552 27.6002 45.5663C27.2891 45.4774 27.0446 45.2885 26.8668 44.9996L24.9335 41.7329ZM29.6668 35.7996C29.9113 36.0441 30.2224 36.1663 30.6002 36.1663C30.978 36.1663 31.2891 36.0441 31.5335 35.7996L37.2002 30.1329C37.4668 29.8663 37.6002 29.5494 37.6002 29.1823C37.6002 28.8161 37.4668 28.4996 37.2002 28.2329C36.9335 27.9663 36.6171 27.8329 36.2508 27.8329C35.8837 27.8329 35.5668 27.9663 35.3002 28.2329L30.6002 32.9329L28.6668 31.0329C28.4002 30.7885 28.0837 30.6716 27.7175 30.6823C27.3504 30.6938 27.0446 30.8218 26.8002 31.0663C26.5557 31.3107 26.4335 31.6218 26.4335 31.9996C26.4335 32.3774 26.5557 32.6885 26.8002 32.9329L29.6668 35.7996Z" fill="#0059FF"/>
  </g>
</svg>