<svg xmlns="http://www.w3.org/2000/svg" width="28" height="28" viewBox="0 0 28 28" fill="none">
  <path d="M3.84345 13.7113C3.23314 12.8341 2.98814 12.0072 3.58533 11.5063C4.09064 11.0819 4.83439 11.001 5.75314 12.0619C5.75314 12.0619 8.49845 15.2513 9.44345 16.1372C9.65783 16.3363 9.9247 16.3669 10.1675 16.1153C10.3731 15.901 10.2988 15.715 10.1238 15.4591C10.1238 15.4591 6.25408 9.70595 5.74658 9.00376C4.90001 7.82908 5.22595 7.07001 5.61751 6.70908C6.1622 6.20376 7.12033 6.10314 8.01064 7.32376L12.6963 13.5953C12.8385 13.7463 13.0681 13.7681 13.2366 13.65L13.3022 13.6041C13.475 13.4816 13.5253 13.2475 13.4203 13.0638C12.6 11.6353 9.33626 5.94345 8.8572 4.90658C8.30595 3.71001 8.5422 3.10189 9.12626 2.7497C9.8197 2.33189 10.4716 2.36251 11.2503 3.5197C12.0947 4.7797 15.3738 10.0844 16.2072 11.5106C16.3166 11.6966 16.5506 11.7666 16.7431 11.6725C16.7453 11.6703 16.7497 11.6703 16.7519 11.6681C16.9356 11.5785 17.1019 11.3969 17.0253 11.1388C16.5703 9.63814 14.3369 4.96564 13.8688 3.89158C13.2278 2.42376 13.5406 1.92501 14.2035 1.58814C14.8991 1.23595 15.6231 1.51376 16.1153 2.49376C16.4478 3.15876 22.2863 13.7835 22.2863 13.7835C22.201 12.1997 22.6013 11.0775 22.9425 9.95095C23.5638 7.90126 25.0666 6.83595 26.156 7.31501C26.7225 7.56439 26.8253 8.06095 26.7641 8.44158C26.6416 9.18095 26.1209 11.4713 26.0203 13.265C25.7841 17.4694 27.055 22.3147 22.3191 25.3597C19.1494 27.3985 15.7522 27.0397 13.5078 25.4713C10.7866 23.5703 4.3422 14.4288 3.84345 13.7113Z" fill="#FFCA28"/>
  <path d="M25.7425 11.3246C25.3466 12.9893 25.2941 15.0325 25.3072 15.9031C25.3597 19.2959 25.3422 22.2315 21.9407 24.9134C21.5228 25.2437 20.2125 26.0487 18.6878 26.4687C18.1978 26.6021 18.3838 26.7596 18.6857 26.7246C20.3503 26.5321 21.6125 25.8146 22.3147 25.3618C27.0485 22.3168 25.8847 17.5043 26.121 13.3C26.2216 11.5062 26.7685 8.68433 26.7597 8.44152C26.7488 8.1987 26.1385 9.65995 25.7425 11.3246ZM16.9597 11.4996C16.9597 11.4996 16.6207 11.5018 16.2991 11.0534C15.3344 9.71245 12.3091 4.64839 11.4385 3.40589C10.4453 1.98839 9.52003 2.53089 9.31003 2.64464C9.31003 2.64464 10.0713 2.67089 10.4913 3.29433C11.3488 4.56527 14.5994 10.2615 15.6253 11.4843C16.2882 12.274 16.9597 11.4996 16.9597 11.4996ZM4.96784 11.9306C5.26534 12.25 7.87721 15.3496 8.83971 16.2137C9.66659 16.9553 10.2835 16.0103 10.2835 16.0103C10.2835 16.0103 9.9794 16.0518 9.56378 15.739C8.53128 14.9581 6.08565 12.1734 5.5344 11.5871C4.71628 10.7165 3.95503 11.2612 3.79315 11.3596C3.79534 11.3596 4.26346 11.1781 4.96784 11.9306ZM13.4728 13.4006C13.4728 13.4006 13.1928 13.604 12.6788 13.0025C12.3047 12.5628 8.01065 7.3237 8.01065 7.3237C6.9344 6.00902 6.08784 6.40058 5.91284 6.5012C5.91284 6.5012 6.45315 6.47277 7.08534 7.2012C7.37409 7.5337 11.9569 13.3765 12.1407 13.5756C12.8122 14.3084 13.4335 13.6784 13.4728 13.4006Z" fill="#EDA600"/>
  <path d="M22.2687 12.6503C22.2687 12.6503 16.579 3.11059 16.2159 2.4609C15.4087 1.01934 14.4703 1.46122 14.3106 1.5334C14.3106 1.5334 14.8334 1.38465 15.4481 2.43028C15.7762 2.9859 19.9565 10.5022 21.2909 12.904C21.3959 13.3525 21.3872 13.9365 21.0503 14.3128C19.8428 15.6668 18.3028 17.0493 18.7556 20.4772C18.8694 21.3456 19.1909 22.1681 19.4294 22.564C19.7312 23.0606 20.079 22.8725 19.9259 22.5006C19.8231 22.249 19.659 21.6562 19.6262 21.4025C19.4731 20.2212 18.9569 18.1562 21.2712 15.68C21.6628 15.2665 22.6581 14.0175 22.2687 12.6503Z" fill="#EDA600"/>
  <path d="M22.6384 6.77252C22.3344 5.69408 21.8619 4.70534 21.2494 3.84784C20.6981 3.07565 20.0309 2.41065 19.2697 1.8769C19.1734 1.80909 19.0509 1.59909 19.156 1.39565C19.261 1.19221 19.4885 1.21846 19.5738 1.25346C20.5253 1.64502 21.3041 2.32096 21.9472 3.24846C22.7106 4.35096 23.0891 5.39002 23.2838 6.55159C23.3056 6.67846 23.3013 6.94533 23.03 7.01534C22.761 7.08533 22.6691 6.87752 22.6384 6.77252ZM21.151 7.92971C20.8469 6.85127 20.3744 5.86252 19.7619 5.00502C19.2106 4.23283 18.5434 3.56784 17.7822 3.03409C17.6859 2.96627 17.5634 2.75627 17.6684 2.55284C17.7734 2.34721 18.0009 2.37565 18.0863 2.41065C19.0378 2.80221 19.8166 3.47815 20.4597 4.40565C21.2231 5.50815 21.6016 6.54721 21.7963 7.70877C21.8181 7.83565 21.8138 8.10252 21.5425 8.17252C21.2756 8.24252 21.1816 8.0369 21.151 7.92971ZM1.87251 16.9444C2.24876 18.001 2.7847 18.9547 3.45189 19.7706C4.05345 20.5035 4.7622 21.1247 5.55626 21.6081C5.65689 21.6694 5.79251 21.8706 5.70064 22.0806C5.60876 22.2928 5.38126 22.2797 5.29157 22.2513C4.31595 21.9231 3.49345 21.2997 2.79126 20.416C1.95782 19.366 1.50939 18.3553 1.23814 17.2091C1.20751 17.0822 1.19439 16.8175 1.46126 16.73C1.72814 16.6425 1.83532 16.8416 1.87251 16.9444ZM3.27907 15.691C3.65532 16.7475 4.19126 17.7013 4.85845 18.5172C5.46001 19.25 6.16876 19.8713 6.96282 20.3547C7.06345 20.416 7.19907 20.6172 7.1072 20.8272C7.01533 21.0394 6.78782 21.0263 6.69814 20.9978C5.72251 20.6697 4.90001 20.0463 4.19782 19.1625C3.36439 18.1125 2.91595 17.1019 2.6447 15.9556C2.61407 15.8288 2.60095 15.5641 2.86782 15.4766C3.1347 15.3869 3.24189 15.5881 3.27907 15.691Z" fill="#B0BEC5"/>
</svg> 