<svg width="32" height="32" viewBox="0 0 32 32" fill="none" xmlns="http://www.w3.org/2000/svg">
<g id="fluent:people-community-20-filled">
<rect width="32" height="32" rx="10" fill="#F5FAFF"/>
<path id="Vector" d="M13.6433 13.2222C14.2033 12.5444 15.0511 12.1111 16 12.1111C16.9489 12.1111 17.7967 12.5444 18.3567 13.2222C18.7254 13.6692 18.9593 14.2119 19.0313 14.7868C19.1033 15.3618 19.0103 15.9453 18.7632 16.4695C18.5161 16.9936 18.1251 17.4366 17.6357 17.7469C17.1464 18.0572 16.5789 18.222 15.9994 18.222C15.42 18.222 14.8525 18.0572 14.3631 17.7469C13.8738 17.4366 13.4828 16.9936 13.2357 16.4695C12.9886 15.9453 12.8956 15.3618 12.9676 14.7868C13.0395 14.2119 13.2735 13.6692 13.6422 13.2222H13.6433ZM20.1667 15.1667C20.1667 14.4644 19.9933 13.8022 19.6867 13.2222H24.3333C24.7754 13.2222 25.1993 13.3978 25.5118 13.7104C25.8244 14.0229 26 14.4469 26 14.8889V15.4444C26 17.2078 24.66 19.0133 22.3167 19.6489C22.0759 19.2163 21.7238 18.856 21.297 18.6051C20.8701 18.3543 20.384 18.2221 19.8889 18.2222H18.8333C19.2545 17.8326 19.5904 17.3599 19.8198 16.834C20.0493 16.3081 20.1674 15.7404 20.1667 15.1667ZM19.8889 19.3333C20.1079 19.3327 20.3249 19.3755 20.5274 19.459C20.7299 19.5426 20.9138 19.6653 21.0687 19.8202C21.2236 19.9751 21.3463 20.159 21.4299 20.3615C21.5134 20.564 21.5561 20.781 21.5556 21V21.5556C21.5556 23.7456 19.4889 26 16 26C12.5111 26 10.4444 23.7456 10.4444 21.5556V21C10.4439 20.781 10.4866 20.564 10.5701 20.3615C10.6537 20.159 10.7764 19.9751 10.9313 19.8202C11.0862 19.6653 11.2701 19.5426 11.4726 19.459C11.6751 19.3755 11.8921 19.3327 12.1111 19.3333H19.8889ZM6 15.4444C6 17.2078 7.34 19.0133 9.68333 19.6489C9.92415 19.2163 10.2762 18.856 10.703 18.6051C11.1299 18.3543 11.616 18.2221 12.1111 18.2222H13.1667C12.7455 17.8326 12.4096 17.3599 12.1802 16.834C11.9507 16.3081 11.8326 15.7404 11.8333 15.1667C11.8333 14.4644 12.0067 13.8022 12.3144 13.2222H7.66667C7.22464 13.2222 6.80072 13.3978 6.48816 13.7104C6.17559 14.0229 6 14.4469 6 14.8889V15.4444ZM14.6111 9.05556C14.6111 8.24517 14.2892 7.46798 13.7162 6.89495C13.1431 6.32192 12.3659 6 11.5556 6C10.7452 6 9.96798 6.32192 9.39495 6.89495C8.82192 7.46798 8.5 8.24517 8.5 9.05556C8.5 9.86594 8.82192 10.6431 9.39495 11.2162C9.96798 11.7892 10.7452 12.1111 11.5556 12.1111C12.3659 12.1111 13.1431 11.7892 13.7162 11.2162C14.2892 10.6431 14.6111 9.86594 14.6111 9.05556ZM23.5 9.05556C23.5 8.24517 23.1781 7.46798 22.605 6.89495C22.032 6.32192 21.2548 6 20.4444 6C19.6341 6 18.8569 6.32192 18.2838 6.89495C17.7108 7.46798 17.3889 8.24517 17.3889 9.05556C17.3889 9.86594 17.7108 10.6431 18.2838 11.2162C18.8569 11.7892 19.6341 12.1111 20.4444 12.1111C21.2548 12.1111 22.032 11.7892 22.605 11.2162C23.1781 10.6431 23.5 9.86594 23.5 9.05556Z" fill="#008080"/>
</g>
</svg>
