<svg width="79" height="30" viewBox="0 0 79 30" fill="none" xmlns="http://www.w3.org/2000/svg">
<path d="M78.1639 -7.94434C76.5711 -3.76946 75.0694 0.445054 73.3599 4.57872C64.3636 26.3175 38.7419 32.3791 21.9449 15.7551C15.4046 9.27653 11.7417 -0.115013 6.86063 -8.24507C5.94889 -9.75648 5.50591 -11.554 4.84153 -13.212C3.99076 -12.8046 3.13999 -12.3972 2.28869 -11.9813C6.21474 -4.24186 9.39455 4.00505 14.2263 11.1363C23.9439 25.4871 38.9935 30.7774 54.5366 26.5057C67.4642 22.9586 77.6483 8.77422 78.1639 -7.94434Z" fill="white"/>
<path d="M71.8028 -7.63694C65.6305 5.5426 58.6322 18.5863 41.3903 15.5872C25.9593 12.9035 18.9352 -0.115942 12.4164 -12.9086C14.1552 3.00362 30.3014 18.7194 44.4449 18.9409C58.1373 19.1602 69.2213 8.75903 71.8028 -7.63694Z" fill="white"/>
<path d="M18.7746 -13.9992C23.2159 1.01502 35.9081 11.5652 46.5219 10.2082C55.3594 9.08253 63.7748 0.687877 64.3042 -7.51855C48.0391 13.7824 41.1765 12.9696 18.7746 -13.9992Z" fill="white"/>
<path d="M25.901 -12.3531C30.2984 -4.94216 35.6211 0.985058 44.899 0.729072C49.9982 0.591039 53.4683 -2.26849 57.0889 -9.93617C44.3154 4.54886 35.3307 -4.26722 25.901 -12.3531Z" fill="white"/>
</svg>
