<svg width="214" height="276" viewBox="0 0 214 276" fill="none" xmlns="http://www.w3.org/2000/svg">
<path d="M174.475 20.5681C175.66 25.6039 174.076 26.866 169.232 27.2267C160.988 27.832 152.795 29.2229 144.615 30.279C145.774 41.162 146.818 51.0403 147.926 61.4983C140.222 62.0907 133.434 62.8506 126.645 63.0309C122.278 63.1597 120.977 64.8855 121.698 68.9811C122.742 74.854 123.579 80.7527 124.584 87.2181C114.394 88.7893 104.372 90.3348 94.1959 91.9061C95.4583 102.519 96.6434 112.41 97.893 122.919C88.8628 123.769 80.6314 124.529 71.2019 125.418C72.3484 133.454 73.4433 141.105 74.5641 149C64.2071 150.713 54.198 152.374 44.4207 153.984C45.8635 164.751 47.1516 174.436 48.5429 184.881C39.2938 185.924 30.9206 186.865 21.5813 187.908C22.8437 194.566 23.6295 200.465 25.1496 206.183C26.3733 210.807 24.995 212.134 20.422 212.675C12.0102 213.666 3.68855 215.392 -4.50426 216.783C-2.81675 227.499 -1.2967 237.158 0.339285 247.642C-3.28049 248.002 -6.14025 248.286 -9 248.569V209.931C-1.36111 209.017 6.29066 208.038 13.9424 207.227C17.4978 206.84 18.0517 204.999 17.3303 201.895C16.493 198.353 15.8103 194.76 15.3852 191.153C14.3933 182.808 14.8184 182.267 23.1915 180.618C28.7565 179.523 34.3729 178.609 40.3114 177.553C39.6673 173.818 39.1649 171.1 38.7141 168.37C38.2632 165.627 37.6964 162.883 37.4388 160.127C36.3696 148.317 36.8076 147.841 48.4141 146.578C50.7585 146.334 53.0901 145.96 55.4346 145.677C67.2086 144.196 67.2086 144.209 65.0702 132.295C64.8126 130.827 64.7095 129.32 64.4261 127.852C63.3312 122.121 65.3794 119.081 71.4724 118.437C77.514 117.806 83.4782 116.454 89.4811 115.424C88.5021 107.374 87.5102 100.394 86.8404 93.3872C86.3251 88.0166 88.4635 85.1059 94.4277 84.7839C101.783 84.3846 109.087 83.0581 116.842 82.0921C115.966 76.0389 115.335 70.9645 114.472 65.9416C113.48 60.1202 115.618 57.2095 121.673 56.6557C127.573 56.1276 133.408 54.9299 139.604 53.9639C138.818 46.6614 137.93 40.1316 137.44 33.5632C136.822 25.1016 138.136 23.8266 146.393 23.1826C151.739 22.7705 157.046 21.9848 162.392 21.6371C166.269 21.3924 167.609 19.9628 166.849 15.9187C165.857 10.6769 165.522 5.30624 164.904 0H197.108C189.083 0.862908 181.058 1.73869 171.873 2.73039C172.736 8.91242 173.122 14.8497 174.475 20.5681Z" fill="white"/>
<path d="M47.8086 137.589V137.601H47.8211V137.589H47.8086Z" fill="white"/>
<path d="M213.855 0C188.452 30.176 -9 275.615 -9 275.615V267.888C-1.28382 258.782 205.327 2.65312 207.414 0H213.855Z" fill="white"/>
<path d="M154.599 0C147.359 9.26016 -4.96801 196.537 -9 200.916V193.188C-7.40266 191.926 136.95 14.1027 148.158 0H154.599Z" fill="white"/>
<path d="M172.35 32.3011C165.342 41.1877 159.442 48.6448 153.542 56.1019C152.975 55.9216 152.396 55.7413 151.829 55.5738C151.004 49.1471 150.193 42.7333 149.227 35.1732C156.917 34.2201 163.616 33.3958 172.35 32.3011Z" fill="white"/>
<path d="M22.2641 219.204C16.6992 226.855 11.1471 234.518 5.58219 242.181C5.01539 242.039 4.43571 241.91 3.86892 241.769C2.81261 235.419 1.75631 229.07 0.506775 221.561C7.70769 220.299 14.4577 219.114 21.2207 217.929C21.5685 218.354 21.9163 218.779 22.2641 219.204Z" fill="white"/>
<path d="M122.008 93.4774C115.077 102.467 109.345 109.885 103.612 117.304C102.968 117.188 102.311 117.072 101.654 116.969C100.791 110.568 99.9154 104.18 98.9106 96.8002C106.253 95.7441 113.068 94.7524 122.008 93.4774Z" fill="white"/>
<path d="M72.1809 155.349C65.4309 164.326 59.7887 171.796 54.1593 179.279L52.1884 178.776C51.3125 172.955 50.2819 167.159 49.7409 161.312C49.6507 160.372 51.5959 158.556 52.8196 158.311C58.5907 157.191 64.439 156.482 72.1809 155.349Z" fill="white"/>
<path d="M96.025 126.319C89.713 134.562 84.6376 141.169 79.575 147.789C78.815 147.622 78.0679 147.467 77.3078 147.3C76.4963 141.723 75.5946 136.172 74.9891 130.582C74.8989 129.694 76.0841 127.891 76.8183 127.813C82.5765 127.182 88.3733 126.873 96.025 126.319Z" fill="white"/>
<path d="M145.929 65.0014C139.681 72.9736 134.529 79.5292 129.389 86.0847C128.642 85.943 127.882 85.8013 127.135 85.6597C126.4 80.2633 125.55 74.8669 125.061 69.4447C124.958 68.35 126.156 66.1863 126.916 66.109C132.7 65.5423 138.535 65.3749 145.929 65.0014Z" fill="white"/>
<path d="M195.369 5.56382C190.217 11.9648 185.051 18.3658 179.898 24.7667C179.19 24.7023 178.494 24.6251 177.786 24.5607C176.832 18.2885 175.879 12.0163 174.823 5.01002C182.127 4.59788 188.4 4.25014 194.661 3.9024C194.906 4.45621 195.137 5.01002 195.369 5.56382Z" fill="white"/>
<path d="M46.5462 188.526C40.685 196.485 35.9316 202.964 31.1782 209.429C27.6744 207.188 24.1834 194.309 26.0771 191.179C26.3862 190.677 26.9659 190.033 27.4554 189.994C33.2651 189.479 39.0748 189.08 46.5462 188.526Z" fill="white"/>
<path d="M161.477 15.571C156.66 15.9831 152.396 16.3566 148.119 16.7301C147.72 16.2278 147.333 15.7384 146.934 15.2361C150.451 10.9087 153.967 6.58129 157.484 2.241C158.089 2.4857 158.682 2.73041 159.287 2.97511C159.957 6.83888 160.627 10.7155 161.477 15.571Z" fill="white"/>
<path d="M111.058 76.9018C106.021 77.3011 101.577 77.6617 97.1329 78.0094C96.8624 77.4685 96.5919 76.9404 96.3214 76.3995C99.851 72.0979 103.368 67.7833 108.057 62.0521C109.255 67.9765 110.066 72.0077 111.058 76.9018Z" fill="white"/>
<path d="M83.6328 111.457H68.6771C72.3999 106.769 75.5302 102.841 80.0001 97.2381C81.4815 103.008 82.4477 106.782 83.6328 111.457Z" fill="white"/>
<path d="M133.794 49.8297H118.723C122.768 44.8969 125.988 40.9817 130.407 35.5981C131.746 41.2135 132.687 45.1416 133.794 49.8297Z" fill="white"/>
<path d="M34.2313 173.857H19.984C23.694 169.143 26.6696 165.356 30.4955 160.501C31.7451 164.983 32.8271 168.859 34.2313 173.857Z" fill="white"/>
<path d="M60.9094 138.619C56.5553 139.16 52.8196 139.701 49.0581 139.997C49.0581 139.997 49.0581 139.997 49.0452 139.997C48.9937 139.984 48.9551 139.958 48.9035 139.92C48.8649 139.881 48.8134 139.817 48.7618 139.74V139.727C48.6846 139.611 48.6201 139.469 48.5428 139.314C48.4269 139.07 48.311 138.799 48.2079 138.516C48.1564 138.374 48.092 138.246 48.0405 138.117C47.9889 137.988 47.9374 137.872 47.8859 137.756C47.8601 137.705 47.8344 137.653 47.8215 137.602V137.589H47.8344C50.7972 133.48 53.7857 129.385 56.7614 125.289C57.3669 125.547 57.9594 125.791 58.5649 126.049C59.312 130.08 60.072 134.111 60.9094 138.619Z" fill="white"/>
<path d="M47.8211 137.589H47.8086V137.601H47.8211V137.589Z" fill="white"/>
<path d="M12.1004 201.573C7.11513 201.985 2.83838 202.345 -3.2547 202.848C-1.11633 199.808 0.107443 198.057 1.34409 196.305C3.01872 194.644 4.70624 192.982 6.38087 191.321C6.93478 190.316 7.47582 189.299 8.77688 186.929C10.0135 192.416 10.9281 196.447 12.1004 201.573Z" fill="white"/>
<path d="M47.8211 137.589H47.8086V137.601H47.8211V137.589Z" fill="white"/>
</svg>
