<svg xmlns="http://www.w3.org/2000/svg" width="83" height="74" viewBox="0 0 83 74" fill="none">
  <rect width="35.7387" height="35.705" transform="matrix(0.63617 -0.771549 0.768358 0.64002 0.30835 27.7576)" fill="#FFB200"/>
  <path d="M47.338 25.8563C47.338 25.8563 45.0267 28.0725 45.5341 28.6388C46.0415 29.205 49.875 28.6388 49.875 28.6388C49.875 28.6388 50.0998 29.6587 51.6789 29.6025C53.258 29.5462 56.4712 29.6025 56.4712 29.6025" fill="#CCF8FE"/>
  <path fill-rule="evenodd" clip-rule="evenodd" d="M29.9867 26.4199L39.0788 35.1272C39.0788 35.1272 41.6158 48.4394 43.7303 51.0925C45.8448 53.7456 56.5841 61.8163 56.5841 61.8163L66.6472 73.0361L82.3766 65.06L74.7656 55.9486C74.7656 55.9486 76.493 39.5099 75.3933 36.4013C74.5931 34.1391 65.1605 25.8612 59.1398 20.2044C56.7629 17.9729 53.5142 16.9327 50.291 17.3714L32.8958 19.7348C32.5763 19.7783 32.3149 20.0121 32.2346 20.326C32.1543 20.6399 32.2712 20.9713 32.5302 21.1644L34.4283 22.5763L49.8182 22.6887L59.2517 38.9878L50.0439 38.8387C50.0439 38.8387 40.2858 21.4569 30.6517 23.8615C30.121 23.9965 29.7055 24.4109 29.5671 24.9432C29.4288 25.4755 29.5895 26.0413 29.9867 26.4199Z" fill="white"/>
  <path d="M66.2666 34.1401C66.2666 34.1401 56.7995 20.1417 54.9182 18.5011C53.5116 17.2739 51.6788 17.2739 51.6788 17.2739" stroke="black" stroke-width="0.55"/>
  <path d="M71.0591 33.1013C71.0591 33.1013 61.564 23.1696 57.9021 19.5866C56.2232 17.9432 54.7113 17.6901 54.7113 17.6901" stroke="black" stroke-width="0.55"/>
  <path fill-rule="evenodd" clip-rule="evenodd" d="M74.5045 29.3345L30.4279 27.3658L24.8064 23.9983L30.9185 21.9237L74.7452 23.883C75.4655 23.9139 76.144 24.2317 76.6309 24.7663C77.1177 25.3008 77.3729 26.0081 77.34 26.732C77.3083 27.4554 76.9915 28.1364 76.4595 28.6246C75.9276 29.1129 75.2241 29.3683 74.5045 29.3345Z" fill="black"/>
  <path d="M41.3743 27.945L31.0006 27.4819L29.9867 26.5116C29.5903 26.1324 29.4301 25.5667 29.5686 25.0345C29.7071 24.5024 30.1223 24.0879 30.6527 23.9523C34.4013 23.0167 38.1657 25.0782 41.3743 27.945Z" fill="white"/>
  <path fill-rule="evenodd" clip-rule="evenodd" d="M74.7236 27.8542C75.4319 27.8542 76.0061 27.2771 76.0061 26.5652C76.0061 25.8532 75.4319 25.2761 74.7236 25.2761C74.0153 25.2761 73.4411 25.8532 73.4411 26.5652C73.4411 27.2771 74.0153 27.8542 74.7236 27.8542Z" fill="white"/>
  <path opacity="0.2" fill-rule="evenodd" clip-rule="evenodd" d="M33.2287 19.6861C33.2287 19.6861 35.5372 21.9951 36.9419 19.1818L33.2287 19.6861Z" fill="black"/>
  <path opacity="0.2" fill-rule="evenodd" clip-rule="evenodd" d="M30.7972 27.1932C30.7972 27.1932 30.4241 25.4813 32.824 25.7429C35.2239 26.0044 35.5578 27.931 34.6895 28.5825C34.1424 28.9745 33.4764 29.1622 32.8063 29.1131" fill="black"/>
  <path d="M11.7083 30.3075C11.7083 30.3075 13.7379 14.6994 16.7254 14.3029C19.7129 13.9063 19.9955 28.0725 21.2957 28.2141C22.596 28.3557 24.8065 23.9983 24.8065 23.9983" stroke="black" stroke-width="3.0096"/>
</svg>